<?xml version="1.0" encoding="UTF-8" standalone="no"?>
<svg
   xmlns:dc="http://purl.org/dc/elements/1.1/"
   xmlns:cc="http://creativecommons.org/ns#"
   xmlns:rdf="http://www.w3.org/1999/02/22-rdf-syntax-ns#"
   xmlns:svg="http://www.w3.org/2000/svg"
   xmlns="http://www.w3.org/2000/svg"
   viewBox="0 0 692.14667 174.25333"
   height="174.25333"
   width="692.14667"
   xml:space="preserve"
   id="svg2"
   version="1.1"><metadata
     id="metadata8"><rdf:RDF><cc:Work
         rdf:about=""><dc:format>image/svg+xml</dc:format><dc:type
           rdf:resource="http://purl.org/dc/dcmitype/StillImage" /></cc:Work></rdf:RDF></metadata><defs
     id="defs6" /><g
     transform="matrix(1.3333333,0,0,-1.3333333,0,174.25333)"
     id="g10"><g
       transform="scale(0.1)"
       id="g12"><path
         id="path14"
         style="fill:#127bca;fill-opacity:1;fill-rule:nonzero;stroke:none"
         d="M 718.789,195.219 0,399.996 626.855,546.285 234.016,876.418 434.613,855.516 108.656,1306.87 1237.03,817.926 718.789,195.219 v 0" /><path
         id="path16"
         style="fill:#00adef;fill-opacity:1;fill-rule:nonzero;stroke:none"
         d="M 0,399.996 1102.77,656.594 718.789,195.219 Z" /><path
         id="path18"
         style="fill:#127bca;fill-opacity:1;fill-rule:nonzero;stroke:none"
         d="m 1318.79,221.941 c -2.8,77.731 -32.91,107.145 -86.11,107.145 -55.32,0 -91.02,-35.016 -98.03,-107.145 z m -264.65,-35 c 0,116.25 72.11,189.059 178.54,189.059 102.91,0 162.42,-53.906 162.42,-176.449 0,-10.481 -0.69,-20.313 -0.69,-23.082 h -261.16 c 2.79,-85.4495 39.9,-127.4377 112.73,-127.4377 51.8,0 75.61,18.1992 94.52,41.3085 h 43.41 V 38.5391 C 1355.19,19.6094 1313.89,0.710938 1240.38,0.710938 c -123.23,0 -186.24,71.398462 -186.24,186.230062" /><path
         id="path20"
         style="fill:#127bca;fill-opacity:1;fill-rule:nonzero;stroke:none"
         d="m 1445.43,301.789 c -5.6,13.293 -14.7,22.414 -25.9,22.414 h -14.02 v 47.598 h 161.74 v -47.598 h -51.8 l 91.01,-245.7811 h 1.41 l 77.72,205.1561 c 8.4,23.082 6.98,40.625 -18.9,40.625 h -18.21 v 47.598 h 147.04 v -47.598 h -12.6 c -12.62,0 -22.41,-8.418 -28.71,-23.125 L 1633.76,4.92969 h -69.3 L 1445.43,301.789" /><path
         id="path22"
         style="fill:#127bca;fill-opacity:1;fill-rule:nonzero;stroke:none"
         d="m 2066.38,221.941 c -2.8,77.731 -32.91,107.145 -86.12,107.145 -55.31,0 -91.01,-35.016 -98.02,-107.145 z m -264.65,-35 c 0,116.25 72.11,189.059 178.53,189.059 102.91,0 162.45,-53.906 162.45,-176.449 0,-10.481 -0.73,-20.313 -0.73,-23.082 h -261.13 c 2.79,-85.4495 39.9,-127.4377 112.71,-127.4377 51.8,0 75.61,18.1992 94.54,41.3085 h 43.39 V 38.5391 C 2102.78,19.6094 2061.47,0.710938 1987.96,0.710938 c -123.22,0 -186.23,71.398462 -186.23,186.230062" /><path
         id="path24"
         style="fill:#127bca;fill-opacity:1;fill-rule:nonzero;stroke:none"
         d="m 2166.4,49.7305 h 27.3 c 9.1,0 18.93,9.789 18.93,18.9101 V 304.59 c 0,8.402 -9.83,19.613 -18.93,19.613 h -30.1 v 47.598 h 107.13 c 10.49,0 17.5,-9.102 17.5,-49.024 v -11.875 c 25.9,32.891 58.13,63.703 109.22,63.703 8.42,0 15.41,-1.417 21.02,-2.804 v -62.324 h -14.71 c -56.02,0 -88.22,-13.297 -115.53,-37.086 V 49.7305 h 58.13 V 4.92969 H 2166.4 V 49.7305" /><path
         id="path26"
         style="fill:#127bca;fill-opacity:1;fill-rule:nonzero;stroke:none"
         d="m 2688.68,221.941 c -2.83,77.731 -32.95,107.145 -86.15,107.145 -55.31,0 -91.02,-35.016 -98.03,-107.145 z m -264.69,-35 c 0,116.25 72.11,189.059 178.54,189.059 102.93,0 162.42,-53.906 162.42,-176.449 0,-10.481 -0.68,-20.313 -0.68,-23.082 h -261.15 c 2.79,-85.4495 39.9,-127.4377 112.71,-127.4377 51.84,0 75.63,18.1992 94.53,41.3085 h 43.4 V 38.5391 C 2725.05,19.6094 2683.76,0.710938 2610.22,0.710938 2487,0.710938 2423.99,72.1094 2423.99,186.941" /><path
         id="path28"
         style="fill:#127bca;fill-opacity:1;fill-rule:nonzero;stroke:none"
         d="m 2797.08,21.6992 v 76.3321 h 45.53 c 8.38,-34.3125 32.18,-48.3008 81.19,-48.3008 50.41,0 81.23,18.1992 81.23,56.0195 0,34.289 -25.2,44.078 -87.54,53.879 -75.59,11.223 -114.82,35.031 -114.82,107.84 0,68.629 52.54,108.531 140.05,108.531 58.09,0 93.83,-8.406 120.43,-18.23 v -72.782 h -44.1 c -7.73,27.301 -28.02,40.614 -79.14,40.614 -44.8,0 -71.4,-18.235 -71.4,-48.321 0,-32.222 19.61,-43.41 83.32,-53.23 83.98,-12.602 123.2,-34.981 123.2,-107.832 0,-70.0002 -48.99,-115.508062 -150.53,-115.508062 -65.8,0 -100.82,10.507862 -127.42,20.988262" /><path
         id="path30"
         style="fill:#127bca;fill-opacity:1;fill-rule:nonzero;stroke:none"
         d="M 3136.57,91.7383 V 324.203 h -46.87 v 47.598 h 46.87 v 98.722 h 75.61 v -98.722 h 83.34 v -47.598 h -83.34 V 100.16 c 0,-41.3319 14,-50.4295 51.15,-50.4295 h 37.11 V 9.10938 C 3287.12,4.19922 3265.42,0 3239.5,0 3174.38,0 3136.57,23.1094 3136.57,91.7383" /><path
         id="path32"
         style="fill:#127bca;fill-opacity:1;fill-rule:nonzero;stroke:none"
         d="M 3480.97,91.7383 V 324.203 h -46.9 v 47.598 h 46.9 v 98.722 h 75.62 v -98.722 h 83.3 v -47.598 h -83.3 V 100.16 c 0,-41.3319 13.97,-50.4295 51.08,-50.4295 h 37.14 V 9.10938 C 3631.49,4.19922 3609.79,0 3583.9,0 3518.76,0 3480.97,23.1094 3480.97,91.7383" /><path
         id="path34"
         style="fill:#127bca;fill-opacity:1;fill-rule:nonzero;stroke:none"
         d="m 3665.03,49.7305 h 27.34 c 9.1,0 18.89,9.789 18.89,18.9101 V 304.59 c 0,8.402 -9.79,19.613 -18.89,19.613 h -30.11 v 47.598 h 107.11 c 10.48,0 17.5,-9.102 17.5,-49.024 v -11.875 c 25.89,32.891 58.12,63.703 109.23,63.703 8.42,0 15.39,-1.417 20.98,-2.804 v -62.324 h -14.69 c -56.03,0 -88.22,-13.297 -115.52,-37.086 V 49.7305 h 58.12 V 4.92969 H 3665.03 V 49.7305" /><path
         id="path36"
         style="fill:#127bca;fill-opacity:1;fill-rule:nonzero;stroke:none"
         d="m 4152.96,89.6484 v 79.7926 c -20.96,4.219 -44.08,7.028 -68.58,7.028 -53.26,0 -85.42,-18.91 -85.42,-64.43 0,-44.8085 25.19,-63.0077 67.91,-63.0077 38.51,0 63.71,16.8007 86.09,40.6171 z m -228.93,20.3006 c 0,75.621 60.24,111.321 144.93,111.321 32.91,0 58.12,-3.489 84,-9.821 v 48.34 c 0,46.871 -27.29,63.711 -74.18,63.711 -48.3,0 -75.63,-16.84 -95.27,-34.34 h -34.98 v 58.129 c 31.52,15.41 76.3,28.711 143.53,28.711 86.13,0 136.58,-27.324 136.58,-108.531 V 72.1094 c 0,-13.9805 9.08,-22.3789 22.39,-22.3789 h 18.9 V 11.9219 c -9.78,-6.31252 -27.34,-11.210962 -48.3,-11.210962 -39.94,0 -60.94,16.128862 -66.54,49.738262 -27.33,-33.6094 -63.03,-49.738262 -112.05,-49.738262 -70,0 -119.01,36.417962 -119.01,109.238062" /><path
         id="path38"
         style="fill:#127bca;fill-opacity:1;fill-rule:nonzero;stroke:none"
         d="m 4302.04,301.789 c -5.58,13.293 -14.71,22.414 -25.9,22.414 h -14.02 v 47.598 h 161.74 v -47.598 h -51.8 l 91,-245.7811 h 1.4 l 77.74,205.1561 c 8.4,23.082 6.99,40.625 -18.89,40.625 h -18.22 v 47.598 h 147.01 v -47.598 h -12.58 c -12.62,0 -22.4,-8.418 -28.71,-23.125 L 4490.38,4.92969 h -69.32 L 4302.04,301.789" /><path
         id="path40"
         style="fill:#127bca;fill-opacity:1;fill-rule:nonzero;stroke:none"
         d="m 4922.98,221.941 c -2.81,77.731 -32.91,107.145 -86.13,107.145 -55.3,0 -91,-35.016 -98.01,-107.145 z m -264.69,-35 c 0,116.25 72.13,189.059 178.56,189.059 102.91,0 162.44,-53.906 162.44,-176.449 0,-10.481 -0.67,-20.313 -0.67,-23.082 h -261.19 c 2.81,-85.4495 39.92,-127.4377 112.7,-127.4377 51.85,0 75.62,18.1992 94.55,41.3085 h 43.4 V 38.5391 c -28.7,-18.9297 -70,-37.828162 -143.54,-37.828162 -123.2,0 -186.25,71.398462 -186.25,186.230062" /><path
         id="path42"
         style="fill:#127bca;fill-opacity:1;fill-rule:nonzero;stroke:none"
         d="m 5023.02,49.7305 h 26.6 c 9.78,0 19.61,9.789 19.61,18.9101 V 429.203 c 0,8.41 -9.83,19.61 -19.61,19.61 h -28.71 v 46.222 h 109.92 c 9.79,0 14,-6.308 14,-18.898 V 68.6406 c 0,-9.8125 9.81,-18.9101 18.89,-18.9101 h 27.34 V 4.92969 H 5023.02 V 49.7305" /></g></g></svg>